<mxfile host="app.diagrams.net" agent="Mozilla/5.0 (Macintosh; Intel Mac OS X 10_15_7) AppleWebKit/537.36 (KHTML, like Gecko) Chrome/141.0.0.0 Safari/537.36" version="26.0.4">
  <diagram name="Page-1" id="DIJfXaSiZgpQiBbqE2nx">
    <mxGraphModel dx="901" dy="615" grid="0" gridSize="10" guides="1" tooltips="1" connect="1" arrows="1" fold="1" page="0" pageScale="1" pageWidth="450" pageHeight="300" math="0" shadow="0">
      <root>
        <mxCell id="0" />
        <mxCell id="1" parent="0" />
        <mxCell id="puvLmINCdq48PFnhJvnb-30" value="" style="group" parent="1" vertex="1" connectable="0">
          <mxGeometry width="460" height="240" as="geometry" />
        </mxCell>
        <mxCell id="puvLmINCdq48PFnhJvnb-16" style="edgeStyle=orthogonalEdgeStyle;rounded=0;orthogonalLoop=1;jettySize=auto;html=1;exitX=1;exitY=0.5;exitDx=0;exitDy=0;exitPerimeter=0;entryX=0;entryY=0.25;entryDx=0;entryDy=0;endArrow=none;endFill=0;" parent="puvLmINCdq48PFnhJvnb-30" source="puvLmINCdq48PFnhJvnb-1" target="puvLmINCdq48PFnhJvnb-4" edge="1">
          <mxGeometry relative="1" as="geometry" />
        </mxCell>
        <mxCell id="puvLmINCdq48PFnhJvnb-1" value="" style="pointerEvents=1;verticalLabelPosition=bottom;shadow=0;dashed=0;align=center;html=1;verticalAlign=top;shape=mxgraph.electrical.resistors.resistor_1;" parent="puvLmINCdq48PFnhJvnb-30" vertex="1">
          <mxGeometry x="150" y="90" width="100" height="20" as="geometry" />
        </mxCell>
        <mxCell id="puvLmINCdq48PFnhJvnb-2" value="" style="pointerEvents=1;verticalLabelPosition=bottom;shadow=0;dashed=0;align=center;html=1;verticalAlign=top;shape=mxgraph.electrical.resistors.resistor_1;" parent="puvLmINCdq48PFnhJvnb-30" vertex="1">
          <mxGeometry x="50" y="90" width="100" height="20" as="geometry" />
        </mxCell>
        <mxCell id="puvLmINCdq48PFnhJvnb-27" style="edgeStyle=none;rounded=0;orthogonalLoop=1;jettySize=auto;html=1;exitX=1;exitY=0.5;exitDx=0;exitDy=0;" parent="puvLmINCdq48PFnhJvnb-30" source="puvLmINCdq48PFnhJvnb-4" target="puvLmINCdq48PFnhJvnb-28" edge="1">
          <mxGeometry relative="1" as="geometry">
            <mxPoint x="410" y="119.9230769230769" as="targetPoint" />
          </mxGeometry>
        </mxCell>
        <mxCell id="puvLmINCdq48PFnhJvnb-4" value="" style="triangle;whiteSpace=wrap;html=1;" parent="puvLmINCdq48PFnhJvnb-30" vertex="1">
          <mxGeometry x="300" y="80" width="60" height="80" as="geometry" />
        </mxCell>
        <mxCell id="puvLmINCdq48PFnhJvnb-25" style="edgeStyle=orthogonalEdgeStyle;rounded=0;orthogonalLoop=1;jettySize=auto;html=1;exitX=1;exitY=0.5;exitDx=0;exitDy=0;exitPerimeter=0;endArrow=none;endFill=0;" parent="puvLmINCdq48PFnhJvnb-30" source="puvLmINCdq48PFnhJvnb-5" edge="1">
          <mxGeometry relative="1" as="geometry">
            <mxPoint x="380" y="120" as="targetPoint" />
          </mxGeometry>
        </mxCell>
        <mxCell id="puvLmINCdq48PFnhJvnb-26" style="edgeStyle=orthogonalEdgeStyle;rounded=0;orthogonalLoop=1;jettySize=auto;html=1;exitX=0;exitY=0.5;exitDx=0;exitDy=0;exitPerimeter=0;entryX=1;entryY=0.5;entryDx=0;entryDy=0;entryPerimeter=0;endArrow=none;endFill=0;" parent="puvLmINCdq48PFnhJvnb-30" source="puvLmINCdq48PFnhJvnb-5" target="puvLmINCdq48PFnhJvnb-2" edge="1">
          <mxGeometry relative="1" as="geometry">
            <mxPoint x="250" y="100" as="targetPoint" />
            <Array as="points">
              <mxPoint x="150" y="30" />
            </Array>
          </mxGeometry>
        </mxCell>
        <mxCell id="puvLmINCdq48PFnhJvnb-5" value="" style="pointerEvents=1;verticalLabelPosition=bottom;shadow=0;dashed=0;align=center;html=1;verticalAlign=top;shape=mxgraph.electrical.capacitors.capacitor_1;" parent="puvLmINCdq48PFnhJvnb-30" vertex="1">
          <mxGeometry x="286" y="10" width="66.67" height="40" as="geometry" />
        </mxCell>
        <mxCell id="puvLmINCdq48PFnhJvnb-9" value="" style="pointerEvents=1;verticalLabelPosition=bottom;shadow=0;dashed=0;align=center;html=1;verticalAlign=top;shape=mxgraph.electrical.capacitors.capacitor_1;rotation=-90;" parent="puvLmINCdq48PFnhJvnb-30" vertex="1">
          <mxGeometry x="216" y="160" width="70" height="42" as="geometry" />
        </mxCell>
        <mxCell id="puvLmINCdq48PFnhJvnb-12" style="edgeStyle=none;rounded=0;orthogonalLoop=1;jettySize=auto;html=1;exitX=1;exitY=0.5;exitDx=0;exitDy=0;exitPerimeter=0;entryX=1;entryY=0.5;entryDx=0;entryDy=0;entryPerimeter=0;endArrow=none;endFill=0;" parent="puvLmINCdq48PFnhJvnb-30" source="puvLmINCdq48PFnhJvnb-9" target="puvLmINCdq48PFnhJvnb-1" edge="1">
          <mxGeometry relative="1" as="geometry" />
        </mxCell>
        <mxCell id="puvLmINCdq48PFnhJvnb-17" style="edgeStyle=orthogonalEdgeStyle;rounded=0;orthogonalLoop=1;jettySize=auto;html=1;exitX=0;exitY=0.75;exitDx=0;exitDy=0;entryX=1;entryY=0.5;entryDx=0;entryDy=0;endArrow=none;endFill=0;" parent="puvLmINCdq48PFnhJvnb-30" source="puvLmINCdq48PFnhJvnb-4" target="puvLmINCdq48PFnhJvnb-4" edge="1">
          <mxGeometry relative="1" as="geometry" />
        </mxCell>
        <mxCell id="puvLmINCdq48PFnhJvnb-18" value="&lt;font style=&quot;font-size: 21px;&quot;&gt;+&lt;/font&gt;" style="text;html=1;align=center;verticalAlign=middle;whiteSpace=wrap;rounded=0;" parent="puvLmINCdq48PFnhJvnb-30" vertex="1">
          <mxGeometry x="277.5" y="83" width="60" height="30" as="geometry" />
        </mxCell>
        <mxCell id="puvLmINCdq48PFnhJvnb-19" value="&lt;font style=&quot;font-size: 22px;&quot;&gt;-&lt;/font&gt;" style="text;html=1;align=center;verticalAlign=middle;whiteSpace=wrap;rounded=0;" parent="puvLmINCdq48PFnhJvnb-30" vertex="1">
          <mxGeometry x="276.5" y="123" width="60" height="30" as="geometry" />
        </mxCell>
        <mxCell id="puvLmINCdq48PFnhJvnb-20" value="&lt;font style=&quot;font-size: 16px;&quot;&gt;R&lt;/font&gt;" style="text;html=1;align=center;verticalAlign=middle;whiteSpace=wrap;rounded=0;" parent="puvLmINCdq48PFnhJvnb-30" vertex="1">
          <mxGeometry x="70" y="85" width="60" height="30" as="geometry" />
        </mxCell>
        <mxCell id="puvLmINCdq48PFnhJvnb-21" value="&lt;font style=&quot;font-size: 16px;&quot;&gt;R&lt;/font&gt;" style="text;html=1;align=center;verticalAlign=middle;whiteSpace=wrap;rounded=0;" parent="puvLmINCdq48PFnhJvnb-30" vertex="1">
          <mxGeometry x="170" y="85" width="60" height="30" as="geometry" />
        </mxCell>
        <mxCell id="puvLmINCdq48PFnhJvnb-22" value="&lt;font style=&quot;font-size: 16px;&quot;&gt;C1&lt;/font&gt;" style="text;html=1;align=center;verticalAlign=middle;whiteSpace=wrap;rounded=0;" parent="puvLmINCdq48PFnhJvnb-30" vertex="1">
          <mxGeometry x="315" width="60" height="30" as="geometry" />
        </mxCell>
        <mxCell id="puvLmINCdq48PFnhJvnb-23" value="&lt;font style=&quot;font-size: 16px;&quot;&gt;C2&lt;/font&gt;" style="text;html=1;align=center;verticalAlign=middle;whiteSpace=wrap;rounded=0;" parent="puvLmINCdq48PFnhJvnb-30" vertex="1">
          <mxGeometry x="180" y="166" width="60" height="30" as="geometry" />
        </mxCell>
        <mxCell id="puvLmINCdq48PFnhJvnb-24" value="" style="pointerEvents=1;verticalLabelPosition=bottom;shadow=0;dashed=0;align=center;html=1;verticalAlign=top;shape=mxgraph.electrical.signal_sources.signal_ground;" parent="puvLmINCdq48PFnhJvnb-30" vertex="1">
          <mxGeometry x="228.5" y="210" width="45" height="30" as="geometry" />
        </mxCell>
        <mxCell id="puvLmINCdq48PFnhJvnb-28" value="&lt;font style=&quot;font-size: 16px;&quot;&gt;Out&lt;/font&gt;" style="text;html=1;align=center;verticalAlign=middle;whiteSpace=wrap;rounded=0;" parent="puvLmINCdq48PFnhJvnb-30" vertex="1">
          <mxGeometry x="400" y="105.00307692307689" width="60" height="30" as="geometry" />
        </mxCell>
        <mxCell id="puvLmINCdq48PFnhJvnb-29" value="&lt;font style=&quot;font-size: 16px;&quot;&gt;In&lt;/font&gt;" style="text;html=1;align=center;verticalAlign=middle;whiteSpace=wrap;rounded=0;" parent="puvLmINCdq48PFnhJvnb-30" vertex="1">
          <mxGeometry y="83.00307692307689" width="60" height="30" as="geometry" />
        </mxCell>
        <mxCell id="Lzmoz_zXVJM7c53r48KM-1" value="" style="rounded=0;whiteSpace=wrap;html=1;fillColor=none;dashed=1;perimeterSpacing=1;" vertex="1" parent="puvLmINCdq48PFnhJvnb-30">
          <mxGeometry x="62" y="80" width="183" height="41" as="geometry" />
        </mxCell>
        <mxCell id="Lzmoz_zXVJM7c53r48KM-2" value="Dual Gang Pot" style="text;html=1;align=center;verticalAlign=middle;whiteSpace=wrap;rounded=0;" vertex="1" parent="puvLmINCdq48PFnhJvnb-30">
          <mxGeometry x="47.5" y="115" width="105" height="30" as="geometry" />
        </mxCell>
      </root>
    </mxGraphModel>
  </diagram>
</mxfile>
